<svg xmlns="http://www.w3.org/2000/svg" width="257.014" height="339.447" viewBox="0 0 257.014 339.447">
  <g id="Balloon" transform="translate(-56.67 -76.592)">
    <path id="Path_1" data-name="Path 1" d="M181.506,385.118h5.032l16.59,21.806a10.716,10.716,0,0,1,.492,4.967c-.06.194-1.015,3.095-3.6,3.619-6.16.07-33.665,0-33.665,0s-4-2.343-1.629-7.387Z" fill="#5327e8" stroke="#5227e8" stroke-linecap="round" stroke-linejoin="round" stroke-width="1"/>
    <path id="Path_2" data-name="Path 2" d="M174.733,376.851s10.226,10.418,20.893,0l71.773-71.92s38.09-27.991,44.433-79.973-12.156-77.513-12.156-77.513a146.457,146.457,0,0,0-39.317-45.986C241.985,87.618,216.886,77.483,187.163,77.1c-24.749-.317-52.924,5.7-82.176,28.764-12.561,9.9-24.136,22.692-35.419,41.578,0,0-36.5,76.721,15.916,139.854Z" fill="#5726e9" stroke="#5726e9" stroke-linecap="round" stroke-linejoin="round" stroke-width="1"/>
  </g>
</svg>
